# xmcd
#
# Track frame offsets:
#	150
#	18684
#	32980
#	55643
#	73978
#	91107
#	109054
#	124697
#	145057
#	159246
#	182723
#	196172
#	212373
#	228731
#	242088
#	259220
#	275363
#	288004
#	304150
#	320265
#	338054
#
# Disc length: 4705 seconds
#
# Revision: 1
# Processed by: cddbd v1.5.2PL0 Copyright (c) Steve Scherf et al.
# Submitted via: audiograbber 1.83.01
#
DISCID=29125f15
DTITLE=Various Artist - Cream Of Country Vol. 15
DYEAR=2011
DGENRE=Country
TTITLE0=Tim McGraw - Felt Good On My Lips
TTITLE1=Dierks Bentley - Am I The Only One
TTITLE2=Sara Evans - A Little Bit Stronger
TTITLE3=Kenny Chesney - Somewhere With You
TTITLE4=Luke Bryan - Someone Else Calling You Baby
TTITLE5=Carrie Underwood - Mama's Song
TTITLE6=Rodney Atkins - Take The Back Road
TTITLE7=Sugarland - Little Miss (Album Version)
TTITLE8=Joe Nichols - Shape I'm In (Album Version)
TTITLE9=Brad Paisley - This Is Country Music
TTITLE10=Ashton Shepherd - Look It Up (Album Version)
TTITLE11=Chris Young - Tomorrow
TTITLE12=Darius Rucker - This
TTITLE13=Miranda Lambert - Heart Like Mine
TTITLE14=Billy Currington - Let Me Down Easy (Album Version)
TTITLE15=The Band Perry - You Lie (Album Version)
TTITLE16=Jake Owen - Barefoot Blue Jean Night
TTITLE17=Sunny Sweeney - From A Table Away
TTITLE18=Jerrod Nieman - What Do You Want
TTITLE19=Martina McBride - Teenage Daughters (Album Version)
TTITLE20=Eli Young Band - Crazy Girl (Single Version)
EXTD=
EXTT0=
EXTT1=
EXTT2=
EXTT3=
EXTT4=
EXTT5=
EXTT6=
EXTT7=
EXTT8=
EXTT9=
EXTT10=
EXTT11=
EXTT12=
EXTT13=
EXTT14=
EXTT15=
EXTT16=
EXTT17=
EXTT18=
EXTT19=
EXTT20=
PLAYORDER=
